<mxfile host="app.diagrams.net" modified="2023-10-24T13:43:38.386Z" agent="Mozilla/5.0 (Windows NT 10.0; Win64; x64) AppleWebKit/537.36 (KHTML, like Gecko) Chrome/116.0.5845.931 YaBrowser/23.9.3.931 Yowser/2.5 Safari/537.36" etag="ytZVEZbR5JOXGAn6pis1" version="22.0.6" type="device">
  <diagram id="3BfWdyxs2ekjaREb4EZb" name="Страница 1">
    <mxGraphModel dx="1002" dy="567" grid="1" gridSize="10" guides="1" tooltips="1" connect="1" arrows="1" fold="1" page="1" pageScale="1" pageWidth="1169" pageHeight="827" math="0" shadow="0">
      <root>
        <mxCell id="0" />
        <mxCell id="1" parent="0" />
        <mxCell id="y2BS_3oHQd-WPR089kLP-1" value="&lt;h1&gt;Template Method&lt;/h1&gt;&lt;p&gt;Диаграмма классов паттерна &quot;Шаблонный метод&quot;&lt;/p&gt;" style="text;html=1;strokeColor=none;fillColor=none;spacing=5;spacingTop=-20;whiteSpace=wrap;overflow=hidden;rounded=0;" parent="1" vertex="1">
          <mxGeometry x="30" y="20" width="290" height="70" as="geometry" />
        </mxCell>
        <mxCell id="y2BS_3oHQd-WPR089kLP-6" value="AbstractClass" style="swimlane;fontStyle=0;childLayout=stackLayout;horizontal=1;startSize=26;fillColor=none;horizontalStack=0;resizeParent=1;resizeParentMax=0;resizeLast=0;collapsible=1;marginBottom=0;" parent="1" vertex="1">
          <mxGeometry x="420" y="160" width="140" height="104" as="geometry" />
        </mxCell>
        <mxCell id="y2BS_3oHQd-WPR089kLP-7" value="+ TemplateMethod()" style="text;strokeColor=none;fillColor=none;align=left;verticalAlign=top;spacingLeft=4;spacingRight=4;overflow=hidden;rotatable=0;points=[[0,0.5],[1,0.5]];portConstraint=eastwest;" parent="y2BS_3oHQd-WPR089kLP-6" vertex="1">
          <mxGeometry y="26" width="140" height="26" as="geometry" />
        </mxCell>
        <mxCell id="y2BS_3oHQd-WPR089kLP-8" value="# PrimitiveOperation1()" style="text;strokeColor=none;fillColor=none;align=left;verticalAlign=top;spacingLeft=4;spacingRight=4;overflow=hidden;rotatable=0;points=[[0,0.5],[1,0.5]];portConstraint=eastwest;" parent="y2BS_3oHQd-WPR089kLP-6" vertex="1">
          <mxGeometry y="52" width="140" height="26" as="geometry" />
        </mxCell>
        <mxCell id="y2BS_3oHQd-WPR089kLP-9" value="# PrimitiveOperation2()" style="text;strokeColor=none;fillColor=none;align=left;verticalAlign=top;spacingLeft=4;spacingRight=4;overflow=hidden;rotatable=0;points=[[0,0.5],[1,0.5]];portConstraint=eastwest;" parent="y2BS_3oHQd-WPR089kLP-6" vertex="1">
          <mxGeometry y="78" width="140" height="26" as="geometry" />
        </mxCell>
        <mxCell id="y2BS_3oHQd-WPR089kLP-10" value="ConcreteClass" style="swimlane;fontStyle=0;childLayout=stackLayout;horizontal=1;startSize=26;fillColor=none;horizontalStack=0;resizeParent=1;resizeParentMax=0;resizeLast=0;collapsible=1;marginBottom=0;" parent="1" vertex="1">
          <mxGeometry x="720" y="160" width="140" height="104" as="geometry" />
        </mxCell>
        <mxCell id="y2BS_3oHQd-WPR089kLP-11" value="+ TemplateMethod()" style="text;strokeColor=none;fillColor=none;align=left;verticalAlign=top;spacingLeft=4;spacingRight=4;overflow=hidden;rotatable=0;points=[[0,0.5],[1,0.5]];portConstraint=eastwest;" parent="y2BS_3oHQd-WPR089kLP-10" vertex="1">
          <mxGeometry y="26" width="140" height="26" as="geometry" />
        </mxCell>
        <mxCell id="y2BS_3oHQd-WPR089kLP-12" value="# PrimitiveOperation1()" style="text;strokeColor=none;fillColor=none;align=left;verticalAlign=top;spacingLeft=4;spacingRight=4;overflow=hidden;rotatable=0;points=[[0,0.5],[1,0.5]];portConstraint=eastwest;" parent="y2BS_3oHQd-WPR089kLP-10" vertex="1">
          <mxGeometry y="52" width="140" height="26" as="geometry" />
        </mxCell>
        <mxCell id="y2BS_3oHQd-WPR089kLP-13" value="# PrimitiveOperation2()" style="text;strokeColor=none;fillColor=none;align=left;verticalAlign=top;spacingLeft=4;spacingRight=4;overflow=hidden;rotatable=0;points=[[0,0.5],[1,0.5]];portConstraint=eastwest;" parent="y2BS_3oHQd-WPR089kLP-10" vertex="1">
          <mxGeometry y="78" width="140" height="26" as="geometry" />
        </mxCell>
        <mxCell id="y2BS_3oHQd-WPR089kLP-14" value="Extends" style="endArrow=block;endSize=16;endFill=0;html=1;rounded=0;exitX=0.5;exitY=0;exitDx=0;exitDy=0;entryX=0.5;entryY=0;entryDx=0;entryDy=0;" parent="1" source="y2BS_3oHQd-WPR089kLP-10" target="y2BS_3oHQd-WPR089kLP-6" edge="1">
          <mxGeometry width="160" relative="1" as="geometry">
            <mxPoint x="610" y="100" as="sourcePoint" />
            <mxPoint x="570" y="40" as="targetPoint" />
            <Array as="points">
              <mxPoint x="790" y="100" />
              <mxPoint x="490" y="100" />
            </Array>
          </mxGeometry>
        </mxCell>
        <mxCell id="y2BS_3oHQd-WPR089kLP-15" value="void TemplateMethod(){&lt;br&gt;&lt;br&gt;PrimitiveOperation();&lt;br&gt;&lt;br&gt;.....&lt;br&gt;.....&lt;br&gt;&lt;br&gt;PrimitiveOperation();&lt;br&gt;&lt;br&gt;}" style="shape=note;size=20;whiteSpace=wrap;html=1;" parent="1" vertex="1">
          <mxGeometry x="40" y="160" width="280" height="160" as="geometry" />
        </mxCell>
        <mxCell id="y2BS_3oHQd-WPR089kLP-17" value="" style="endArrow=none;html=1;rounded=0;exitX=0.5;exitY=0;exitDx=0;exitDy=0;exitPerimeter=0;entryX=0.25;entryY=0;entryDx=0;entryDy=0;" parent="1" source="y2BS_3oHQd-WPR089kLP-15" target="y2BS_3oHQd-WPR089kLP-6" edge="1">
          <mxGeometry relative="1" as="geometry">
            <mxPoint x="250" y="330" as="sourcePoint" />
            <mxPoint x="410" y="330" as="targetPoint" />
            <Array as="points">
              <mxPoint x="180" y="120" />
              <mxPoint x="455" y="120" />
            </Array>
          </mxGeometry>
        </mxCell>
        <mxCell id="y2BS_3oHQd-WPR089kLP-18" value="&lt;h1&gt;Factory Method&lt;/h1&gt;&lt;p&gt;Диаграмма классов паттерна &quot;Фабричный метод&quot;&lt;/p&gt;" style="text;html=1;strokeColor=none;fillColor=none;spacing=5;spacingTop=-20;whiteSpace=wrap;overflow=hidden;rounded=0;" parent="1" vertex="1">
          <mxGeometry x="40" y="360" width="290" height="70" as="geometry" />
        </mxCell>
        <mxCell id="y2BS_3oHQd-WPR089kLP-19" value="AbstractClassCreator" style="swimlane;fontStyle=0;childLayout=stackLayout;horizontal=1;startSize=26;fillColor=none;horizontalStack=0;resizeParent=1;resizeParentMax=0;resizeLast=0;collapsible=1;marginBottom=0;" parent="1" vertex="1">
          <mxGeometry x="440" y="480" width="186" height="78" as="geometry" />
        </mxCell>
        <mxCell id="y2BS_3oHQd-WPR089kLP-20" value="+ AnOperation()" style="text;strokeColor=none;fillColor=none;align=left;verticalAlign=top;spacingLeft=4;spacingRight=4;overflow=hidden;rotatable=0;points=[[0,0.5],[1,0.5]];portConstraint=eastwest;" parent="y2BS_3oHQd-WPR089kLP-19" vertex="1">
          <mxGeometry y="26" width="186" height="26" as="geometry" />
        </mxCell>
        <mxCell id="y2BS_3oHQd-WPR089kLP-22" value="# FactoryMethod() : Product" style="text;strokeColor=none;fillColor=none;align=left;verticalAlign=top;spacingLeft=4;spacingRight=4;overflow=hidden;rotatable=0;points=[[0,0.5],[1,0.5]];portConstraint=eastwest;" parent="y2BS_3oHQd-WPR089kLP-19" vertex="1">
          <mxGeometry y="52" width="186" height="26" as="geometry" />
        </mxCell>
        <mxCell id="y2BS_3oHQd-WPR089kLP-23" value="Product" style="swimlane;fontStyle=0;childLayout=stackLayout;horizontal=1;startSize=26;fillColor=none;horizontalStack=0;resizeParent=1;resizeParentMax=0;resizeLast=0;collapsible=1;marginBottom=0;" parent="1" vertex="1">
          <mxGeometry x="80" y="480" width="140" height="52" as="geometry" />
        </mxCell>
        <mxCell id="y2BS_3oHQd-WPR089kLP-27" value="ConcreteProduct #1" style="swimlane;fontStyle=0;childLayout=stackLayout;horizontal=1;startSize=26;fillColor=none;horizontalStack=0;resizeParent=1;resizeParentMax=0;resizeLast=0;collapsible=1;marginBottom=0;" parent="1" vertex="1">
          <mxGeometry x="10" y="600" width="140" height="52" as="geometry" />
        </mxCell>
        <mxCell id="y2BS_3oHQd-WPR089kLP-28" value="ConcreteProduct #2" style="swimlane;fontStyle=0;childLayout=stackLayout;horizontal=1;startSize=26;fillColor=none;horizontalStack=0;resizeParent=1;resizeParentMax=0;resizeLast=0;collapsible=1;marginBottom=0;" parent="1" vertex="1">
          <mxGeometry x="130" y="690" width="140" height="52" as="geometry" />
        </mxCell>
        <mxCell id="y2BS_3oHQd-WPR089kLP-29" value="ConcreteProduct #3" style="swimlane;fontStyle=0;childLayout=stackLayout;horizontal=1;startSize=26;fillColor=none;horizontalStack=0;resizeParent=1;resizeParentMax=0;resizeLast=0;collapsible=1;marginBottom=0;" parent="1" vertex="1">
          <mxGeometry x="230" y="600" width="140" height="52" as="geometry" />
        </mxCell>
        <mxCell id="y2BS_3oHQd-WPR089kLP-30" value="Extends" style="endArrow=block;endSize=16;endFill=0;html=1;rounded=0;exitX=0.5;exitY=0;exitDx=0;exitDy=0;entryX=0.25;entryY=1;entryDx=0;entryDy=0;" parent="1" source="y2BS_3oHQd-WPR089kLP-27" target="y2BS_3oHQd-WPR089kLP-23" edge="1">
          <mxGeometry width="160" relative="1" as="geometry">
            <mxPoint x="830" y="420" as="sourcePoint" />
            <mxPoint x="990" y="420" as="targetPoint" />
          </mxGeometry>
        </mxCell>
        <mxCell id="y2BS_3oHQd-WPR089kLP-31" value="Extends" style="endArrow=block;endSize=16;endFill=0;html=1;rounded=0;exitX=0.5;exitY=0;exitDx=0;exitDy=0;entryX=0.5;entryY=1;entryDx=0;entryDy=0;" parent="1" source="y2BS_3oHQd-WPR089kLP-28" target="y2BS_3oHQd-WPR089kLP-23" edge="1">
          <mxGeometry width="160" relative="1" as="geometry">
            <mxPoint x="840.0000000000002" y="479.17" as="sourcePoint" />
            <mxPoint x="1000" y="479.17" as="targetPoint" />
          </mxGeometry>
        </mxCell>
        <mxCell id="y2BS_3oHQd-WPR089kLP-32" value="Extends" style="endArrow=block;endSize=16;endFill=0;html=1;rounded=0;exitX=0.5;exitY=0;exitDx=0;exitDy=0;entryX=0.75;entryY=1;entryDx=0;entryDy=0;" parent="1" source="y2BS_3oHQd-WPR089kLP-29" target="y2BS_3oHQd-WPR089kLP-23" edge="1">
          <mxGeometry width="160" relative="1" as="geometry">
            <mxPoint x="850.0000000000002" y="520" as="sourcePoint" />
            <mxPoint x="1010" y="520" as="targetPoint" />
          </mxGeometry>
        </mxCell>
        <mxCell id="y2BS_3oHQd-WPR089kLP-33" value="Use" style="endArrow=open;endSize=12;dashed=1;html=1;rounded=0;exitX=0;exitY=0.5;exitDx=0;exitDy=0;entryX=1;entryY=0.5;entryDx=0;entryDy=0;" parent="1" source="y2BS_3oHQd-WPR089kLP-22" target="y2BS_3oHQd-WPR089kLP-23" edge="1">
          <mxGeometry width="160" relative="1" as="geometry">
            <mxPoint x="590" y="670" as="sourcePoint" />
            <mxPoint x="750" y="670" as="targetPoint" />
          </mxGeometry>
        </mxCell>
        <mxCell id="y2BS_3oHQd-WPR089kLP-34" value="void AnOperation(){&lt;br&gt;.......&lt;br&gt;Product product = FactoryMethod();&lt;br&gt;.......&lt;br&gt;return product;&lt;br&gt;}" style="shape=note;size=20;whiteSpace=wrap;html=1;" parent="1" vertex="1">
          <mxGeometry x="770" y="480" width="280" height="160" as="geometry" />
        </mxCell>
        <mxCell id="y2BS_3oHQd-WPR089kLP-36" value="" style="endArrow=none;html=1;rounded=0;exitX=1;exitY=0.5;exitDx=0;exitDy=0;entryX=-0.004;entryY=0.241;entryDx=0;entryDy=0;entryPerimeter=0;" parent="1" source="y2BS_3oHQd-WPR089kLP-20" target="y2BS_3oHQd-WPR089kLP-34" edge="1">
          <mxGeometry relative="1" as="geometry">
            <mxPoint x="640" y="430" as="sourcePoint" />
            <mxPoint x="800" y="430" as="targetPoint" />
          </mxGeometry>
        </mxCell>
        <mxCell id="y2BS_3oHQd-WPR089kLP-37" value="ConcreteClassCreator" style="swimlane;fontStyle=0;childLayout=stackLayout;horizontal=1;startSize=26;fillColor=none;horizontalStack=0;resizeParent=1;resizeParentMax=0;resizeLast=0;collapsible=1;marginBottom=0;" parent="1" vertex="1">
          <mxGeometry x="440" y="640" width="190" height="52" as="geometry" />
        </mxCell>
        <mxCell id="y2BS_3oHQd-WPR089kLP-38" value="# FactoryMethod() : Product" style="text;strokeColor=none;fillColor=none;align=left;verticalAlign=top;spacingLeft=4;spacingRight=4;overflow=hidden;rotatable=0;points=[[0,0.5],[1,0.5]];portConstraint=eastwest;" parent="y2BS_3oHQd-WPR089kLP-37" vertex="1">
          <mxGeometry y="26" width="190" height="26" as="geometry" />
        </mxCell>
        <mxCell id="y2BS_3oHQd-WPR089kLP-41" value="Extends" style="endArrow=block;endSize=16;endFill=0;html=1;rounded=0;exitX=0.5;exitY=0;exitDx=0;exitDy=0;entryX=0.5;entryY=1.115;entryDx=0;entryDy=0;entryPerimeter=0;" parent="1" source="y2BS_3oHQd-WPR089kLP-37" target="y2BS_3oHQd-WPR089kLP-22" edge="1">
          <mxGeometry width="160" relative="1" as="geometry">
            <mxPoint x="720" y="680" as="sourcePoint" />
            <mxPoint x="880" y="680" as="targetPoint" />
          </mxGeometry>
        </mxCell>
        <mxCell id="y2BS_3oHQd-WPR089kLP-42" value="....&lt;br&gt;return ConcreteProduct();" style="shape=note;size=20;whiteSpace=wrap;html=1;" parent="1" vertex="1">
          <mxGeometry x="770" y="680" width="280" height="112" as="geometry" />
        </mxCell>
        <mxCell id="y2BS_3oHQd-WPR089kLP-43" value="" style="endArrow=none;html=1;rounded=0;exitX=1.007;exitY=0.064;exitDx=0;exitDy=0;exitPerimeter=0;entryX=0;entryY=0.357;entryDx=0;entryDy=0;entryPerimeter=0;" parent="1" source="y2BS_3oHQd-WPR089kLP-38" target="y2BS_3oHQd-WPR089kLP-42" edge="1">
          <mxGeometry relative="1" as="geometry">
            <mxPoint x="620" y="750" as="sourcePoint" />
            <mxPoint x="780" y="750" as="targetPoint" />
            <Array as="points">
              <mxPoint x="700" y="668" />
              <mxPoint x="700" y="720" />
            </Array>
          </mxGeometry>
        </mxCell>
      </root>
    </mxGraphModel>
  </diagram>
</mxfile>
